solid OpenSCAD_Model
  facet normal 1 0 0
    outer loop
      vertex 0.6499996 -10 1.6999995
      vertex 0.6499996 10 5.722046e-7
      vertex 0.6499996 10 1.6999995
    endloop
  endfacet
  facet normal 1 0 0
    outer loop
      vertex 0.6499996 10 5.722046e-7
      vertex 0.6499996 -10 1.6999995
      vertex 0.6499996 -10 5.722046e-7
    endloop
  endfacet
  facet normal 0 0 1
    outer loop
      vertex -0.6499996 10 1.6999995
      vertex 0.6499996 -10 1.6999995
      vertex 0.6499996 10 1.6999995
    endloop
  endfacet
  facet normal 0 0 1
    outer loop
      vertex 0.6499996 -10 1.6999995
      vertex -0.6499996 10 1.6999995
      vertex -0.6499996 -10 1.6999995
    endloop
  endfacet
  facet normal 0 0 -1
    outer loop
      vertex 5 -14 5.722046e-7
      vertex 0.6499996 -10 5.722046e-7
      vertex 5 -10 5.722046e-7
    endloop
  endfacet
  facet normal 0 0 -1
    outer loop
      vertex 0.6499996 -10 5.722046e-7
      vertex -0.6499996 -10 5.722046e-7
      vertex 0.6499996 10 5.722046e-7
    endloop
  endfacet
  facet normal 0 0 -1
    outer loop
      vertex 5 -14 5.722046e-7
      vertex -0.6499996 -10 5.722046e-7
      vertex 0.6499996 -10 5.722046e-7
    endloop
  endfacet
  facet normal 0 0 -1
    outer loop
      vertex -5 -14 5.722046e-7
      vertex -0.6499996 -10 5.722046e-7
      vertex 5 -14 5.722046e-7
    endloop
  endfacet
  facet normal 0 0 -1
    outer loop
      vertex -0.6499996 -10 5.722046e-7
      vertex -5 -14 5.722046e-7
      vertex -5 -10 5.722046e-7
    endloop
  endfacet
  facet normal 0 0 -1
    outer loop
      vertex 0.6499996 10 5.722046e-7
      vertex -0.6499996 -10 5.722046e-7
      vertex -0.6499996 10 5.722046e-7
    endloop
  endfacet
  facet normal -1 0 0
    outer loop
      vertex -0.6499996 -10 5.722046e-7
      vertex -0.6499996 10 1.6999995
      vertex -0.6499996 10 5.722046e-7
    endloop
  endfacet
  facet normal -1 0 0
    outer loop
      vertex -0.6499996 10 1.6999995
      vertex -0.6499996 -10 5.722046e-7
      vertex -0.6499996 -10 1.6999995
    endloop
  endfacet
  facet normal 0 1 0
    outer loop
      vertex 0.6499996 10 5.722046e-7
      vertex -0.6499996 10 1.6999995
      vertex 0.6499996 10 1.6999995
    endloop
  endfacet
  facet normal 0 1 0
    outer loop
      vertex -0.6499996 10 1.6999995
      vertex 0.6499996 10 5.722046e-7
      vertex -0.6499996 10 5.722046e-7
    endloop
  endfacet
  facet normal 0 1 0
    outer loop
      vertex 5 -10 5.9999995
      vertex 0.6499996 -10 1.6999995
      vertex -5 -10 5.9999995
    endloop
  endfacet
  facet normal 0 1 0
    outer loop
      vertex 5 -10 5.722046e-7
      vertex 0.6499996 -10 1.6999995
      vertex 5 -10 5.9999995
    endloop
  endfacet
  facet normal 0 1 0
    outer loop
      vertex 0.6499996 -10 1.6999995
      vertex 5 -10 5.722046e-7
      vertex 0.6499996 -10 5.722046e-7
    endloop
  endfacet
  facet normal 0 1 0
    outer loop
      vertex -0.6499996 -10 1.6999995
      vertex -5 -10 5.9999995
      vertex 0.6499996 -10 1.6999995
    endloop
  endfacet
  facet normal 0 1 0
    outer loop
      vertex -5 -10 5.722046e-7
      vertex -0.6499996 -10 1.6999995
      vertex -0.6499996 -10 5.722046e-7
    endloop
  endfacet
  facet normal 0 1 0
    outer loop
      vertex -0.6499996 -10 1.6999995
      vertex -5 -10 5.722046e-7
      vertex -5 -10 5.9999995
    endloop
  endfacet
  facet normal 1 0 0
    outer loop
      vertex 5 -14 5.9999995
      vertex 5 -10 5.722046e-7
      vertex 5 -10 5.9999995
    endloop
  endfacet
  facet normal 1 0 0
    outer loop
      vertex 5 -10 5.722046e-7
      vertex 5 -14 5.9999995
      vertex 5 -14 5.722046e-7
    endloop
  endfacet
  facet normal 0 0 1
    outer loop
      vertex -5 -10 5.9999995
      vertex 5 -14 5.9999995
      vertex 5 -10 5.9999995
    endloop
  endfacet
  facet normal 0 0 1
    outer loop
      vertex 5 -14 5.9999995
      vertex -5 -10 5.9999995
      vertex -5 -14 5.9999995
    endloop
  endfacet
  facet normal -1 0 0
    outer loop
      vertex -5 -14 5.722046e-7
      vertex -5 -10 5.9999995
      vertex -5 -10 5.722046e-7
    endloop
  endfacet
  facet normal -1 0 0
    outer loop
      vertex -5 -10 5.9999995
      vertex -5 -14 5.722046e-7
      vertex -5 -14 5.9999995
    endloop
  endfacet
  facet normal 0 -1 0
    outer loop
      vertex -5 -14 5.722046e-7
      vertex 5 -14 5.9999995
      vertex -5 -14 5.9999995
    endloop
  endfacet
  facet normal 0 -1 0
    outer loop
      vertex 5 -14 5.9999995
      vertex -5 -14 5.722046e-7
      vertex 5 -14 5.722046e-7
    endloop
  endfacet
endsolid OpenSCAD_Model
